<svg xmlns="http://www.w3.org/2000/svg" width="256" height="256"><path fill-opacity=".016" d="M0 128.004v128.004l128.25-.254 128.25-.254.254-127.75L257.008 0H0v128.004m.485.496c0 70.4.119 99.053.265 63.672.146-35.38.146-92.98 0-128C.604 29.153.485 58.1.485 128.5" fill="#1976D2" fill-rule="evenodd"/><path fill-opacity=".374" d="M115.5 1.399C98.017 6.928 87 21.497 87 39.089V45l-16.25.002c-18.21.001-21.696.922-24.968 6.594-1.768 3.064-7.052 53.533-13.926 133.011-2.596 30.012-2.35 32.389 3.848 37.117l3.64 2.776 77.681.268 77.681.268 6.849 7.232c15.842 16.73 22.749 23.761 23.047 23.463.175-.174-3.654-45.377-8.508-100.451-9.698-110.04-8.934-104.899-16.128-108.528-2.844-1.435-6.182-1.749-18.591-1.75L166.251 45l-.435-8.25c-.899-17.048-11.428-30.39-27.748-35.162-6.417-1.876-16.953-1.965-22.568-.189m2.979 12.346C106.508 18.019 99.998 26.57 97.538 41.25L96.909 45H156.258l-.663-4.996c-2.543-19.172-20.796-32.086-37.116-26.259M89.193 140.25c.357 7.623.936 10.266 3.296 15.028 3.515 7.094 10.699 13.983 18.293 17.542 5.118 2.399 6.875 2.68 16.739 2.68 10.413 0 11.385-.179 17.623-3.25 7.836-3.858 13.983-10.142 17.68-18.075 2.072-4.447 2.724-7.582 3.012-14.487l.368-8.813-4.352.313-4.352.312-.733 5.898c-.928 7.472-4.047 13.936-9.215 19.097-5.34 5.333-10.718 7.804-18.068 8.301-17.104 1.157-28.905-9.924-31.998-30.046-.557-3.625-.712-3.75-4.651-3.75h-4.074l.432 9.25" fill="#1976D2" fill-rule="evenodd"/><path fill-opacity=".363" d="M117 1.296c-7.716 2.211-13.894 5.899-19.099 11.402-6.932 7.33-9.193 12.788-9.858 23.802l-.543 9-18 .5c-11.182.311-18.784.95-20.071 1.689-4.351 2.499-5.215 7.269-9.39 51.811-10.824 115.496-10.713 113.742-7.477 118.1 1.134 1.527 3.304 3.704 4.823 4.838 2.723 2.034 3.821 2.067 80.438 2.413l77.677.352 13.995 14.898c7.697 8.195 14.272 14.899 14.611 14.899.339 0 .452-1.012.25-2.25-.201-1.237-4.199-46.05-8.883-99.584-5.285-60.407-9.025-98.552-9.858-100.545-2.512-6.011-4.638-6.621-23.08-6.621H166v-5.79C166 18.126 150.521 1.7 128.5.415c-4.015-.234-8.919.141-11.5.881m.275 12.297c-9.705 3.576-18.357 15.009-19.845 26.22L96.742 45h59.538l-.554-5.363c-1.548-14.999-13.229-26.527-27.626-27.263-4.272-.219-8.091.211-10.825 1.219M88.354 132.519c-.345.899-.328 4.863.036 8.808 1.681 18.177 14.509 31.78 32.949 34.938 16.035 2.747 32.378-5.161 40.713-19.7 2.959-5.159 5.323-15.92 4.77-21.704-.31-3.23-.501-3.373-4.927-3.66l-4.605-.299-.585 5.666c-.795 7.706-4.799 15.432-10.785 20.814-17.854 16.052-44.046 4.826-47.657-20.425l-.781-5.457-4.25-.308c-3.205-.232-4.405.094-4.878 1.327" fill="#1976D2" fill-rule="evenodd"/><path fill-opacity=".86" d="M120.043 1.154c-12.344 2.011-22.858 9.661-28.204 20.522-2.724 5.532-3.302 7.973-3.659 15.447L87.755 46l-17.127.015c-26.036.022-24.929-1.256-28.214 32.587C36.523 139.286 31 201.877 31.004 207.919c.004 8.222 2.292 12.405 8.267 15.117 4.05 1.839 7.447 1.921 80.235 1.942l76.006.022 14.244 14.987c7.834 8.242 14.244 14.6 14.244 14.127 0-.472-3.148-36.578-6.996-80.236-3.848-43.658-7.678-87.478-8.511-97.378-1.748-20.786-2.502-24.219-6.054-27.56-2.492-2.344-3.272-2.46-19.767-2.94l-17.172-.5-.506-9c-.4-7.114-1.083-10.179-3.262-14.625-7.222-14.737-24.798-23.473-41.689-20.721m-2.671 12.058c-9.827 3.165-19.083 15.508-20.108 26.814l-.545 6.004 29.891-.265 29.89-.265-.31-5c-.638-10.267-8.021-21.244-17.451-25.943-4.043-2.015-6.522-2.535-11.685-2.455-3.605.056-7.962.556-9.682 1.11M89.119 130.905c-2.374 1.504-1.041 16.414 2.076 23.215 13.904 30.341 58.519 30.341 72.578 0 1.842-3.975 2.624-7.684 2.996-14.197.5-8.777.491-8.82-2.032-9.453-5.907-1.482-6.979-.549-8.706 7.578-2.634 12.394-8.188 19.875-18.031 24.284-9.311 4.171-22.075 1.764-29.872-5.633-4.276-4.058-8.755-13.337-9.666-20.027-.387-2.845-1.212-5.503-1.833-5.907-1.544-1.005-5.828-.925-7.51.14" fill="#1976D2" fill-rule="evenodd"/></svg>