<?xml version="1.0" encoding="utf-8"?>
<!-- Generator: Adobe Illustrator 24.1.2, SVG Export Plug-In . SVG Version: 6.00 Build 0)  -->
<svg version="1.1" id="Layer_1" xmlns="http://www.w3.org/2000/svg" xmlns:xlink="http://www.w3.org/1999/xlink" x="0px" y="0px"
	 viewBox="0 0 792 612" style="enable-background:new 0 0 792 612;" xml:space="preserve">
<style type="text/css">
	.st0{fill:url(#SVGID_1_);}
	.st1{fill:#FFFFFF;}
	.st2{opacity:0.18;fill:url(#SVGID_2_);}
	.st3{display:none;}
	.st4{display:inline;}
</style>
<g id="XMLID_3_">
	<g id="XMLID_2_">
		<g>
			<g id="XMLID_4_">
				<g>
					<linearGradient id="SVGID_1_" gradientUnits="userSpaceOnUse" x1="235.0287" y1="280.86" x2="576.4317" y2="280.86">
						<stop  offset="0" style="stop-color:#0000A0"/>
						<stop  offset="1" style="stop-color:#0000FF"/>
					</linearGradient>
					<path class="st0" d="M545.91,159.27l30.52,346.41l-52-54.73H259.08c0,0-25.1-2.69-24.02-28.71
						c1.08-25.98,24.02-262.96,24.02-262.96s0.73-22.4,20.25-23.13c8.43-0.31,32.1-0.35,56.27-0.27v-14.2
						c0-36.26,30.79-65.63,68.78-65.63s68.78,29.37,68.78,65.63v14.2c22.82-0.08,44.53-0.04,52.54,0.27
						C545.18,136.87,545.91,159.27,545.91,159.27z M456.38,135.37v-1.54c0-31.52-23.29-57.08-52-57.08
						c-28.71,0-51.96,25.56-51.96,57.08v1.54c24.9,0.08,48.15,0.23,48.15,0.23h4.39C404.96,135.6,430.28,135.44,456.38,135.37z"/>
				</g>
				<g>
				</g>
			</g>
		</g>
	</g>
</g>
<g id="XMLID_5_">
	<g>
		<g id="XMLID_28_">
			<g id="XMLID_29_">
				<g>
					<g>
						<path class="st1" d="M470.77,285.34c4.31,0,3.73,4.69,3.73,4.69v10.69c0,36.27-30.79,65.63-68.79,65.63
							c-37.97,0-68.76-29.36-68.76-65.63v-10.69c0,0-0.6-4.69,3.73-4.69h8.54c0,0,4.16-0.48,4.55,3.23
							c0,31.51,23.23,57.06,51.94,57.06s51.97-25.55,51.97-57.06c0.38-3.71,4.55-3.23,4.55-3.23H470.77z"/>
					</g>
				</g>
			</g>
		</g>
	</g>
</g>
<radialGradient id="SVGID_2_" cx="433.1504" cy="522.1579" r="261.0339" fx="433.9687" fy="522.2464" gradientTransform="matrix(1 0 0 0.0763 0 482.3058)" gradientUnits="userSpaceOnUse">
	<stop  offset="2.477800e-04" style="stop-color:#000000"/>
	<stop  offset="0.0853" style="stop-color:#090909;stop-opacity:0.915"/>
	<stop  offset="0.2219" style="stop-color:#202020;stop-opacity:0.7783"/>
	<stop  offset="0.3931" style="stop-color:#474747;stop-opacity:0.607"/>
	<stop  offset="0.5923" style="stop-color:#7C7C7C;stop-opacity:0.4078"/>
	<stop  offset="0.812" style="stop-color:#C0C0C0;stop-opacity:0.1881"/>
	<stop  offset="1" style="stop-color:#FFFFFF;stop-opacity:0"/>
</radialGradient>
<path class="st2" d="M735.32,510.58c0,9.72-191.06,29.62-338.1,29.62s-266.24-7.88-266.24-17.6S250.18,505,397.22,505
	S735.32,500.86,735.32,510.58z"/>
<g class="st3">
	<g class="st4">
		<path d="M301.16,364.38c0.33,0.2,0.61,0.43,0.84,0.71c0.22,0.28,0.33,0.61,0.33,1c0,0.31-0.08,0.63-0.25,0.96l-4.05,6.9
			c-0.47,0.64-0.98,0.96-1.5,0.96c-0.17,0-0.36-0.04-0.59-0.1s-0.45-0.17-0.67-0.31c-1.76-1.25-3.64-2.23-5.64-2.93
			s-4.14-1.04-6.39-1.04c-2.84,0-5.45,0.54-7.82,1.61c-2.37,1.07-4.42,2.53-6.14,4.37c-1.73,1.84-3.07,4-4.03,6.48
			c-0.96,2.48-1.44,5.14-1.44,7.98c0,2.81,0.48,5.45,1.44,7.92c0.96,2.47,2.3,4.62,4.03,6.46c1.73,1.84,3.77,3.29,6.14,4.35
			c2.37,1.06,4.97,1.59,7.82,1.59c2.26,0,4.41-0.35,6.46-1.04s3.94-1.67,5.66-2.93c0.22-0.17,0.45-0.28,0.69-0.33
			c0.24-0.05,0.44-0.1,0.61-0.13c0.47,0,0.96,0.31,1.46,0.92l4.14,6.98c0.17,0.33,0.25,0.64,0.25,0.92c0,0.39-0.12,0.71-0.36,0.96
			c-0.24,0.25-0.51,0.49-0.82,0.71c-2.62,1.76-5.44,3.11-8.46,4.08c-3.02,0.96-6.21,1.44-9.55,1.44c-2.95,0-5.79-0.38-8.51-1.13
			s-5.26-1.82-7.63-3.22c-2.37-1.39-4.52-3.06-6.46-5c-1.94-1.94-3.6-4.08-4.99-6.44c-1.39-2.35-2.47-4.89-3.22-7.61
			c-0.75-2.72-1.13-5.55-1.13-8.5c0-2.95,0.38-5.79,1.13-8.5c0.75-2.72,1.82-5.27,3.22-7.65c1.39-2.38,3.06-4.55,4.99-6.5
			s4.09-3.62,6.46-5c2.37-1.38,4.91-2.45,7.63-3.22c2.72-0.77,5.55-1.15,8.51-1.15c3.32,0,6.46,0.47,9.45,1.4
			C295.74,361.28,298.54,362.63,301.16,364.38z"/>
		<path d="M313.7,361.71c0-0.47,0.16-0.9,0.48-1.28c0.32-0.38,0.76-0.56,1.31-0.56h8.33c0.47,0,0.92,0.18,1.33,0.54
			c0.42,0.36,0.62,0.79,0.62,1.3v21.65h28.04v-21.65c0-0.5,0.17-0.93,0.5-1.3c0.33-0.36,0.78-0.54,1.33-0.54h8.21
			c0.56,0,1.03,0.16,1.44,0.48c0.4,0.32,0.6,0.76,0.6,1.32v58.43c0,1.23-0.65,1.84-1.96,1.84h-8.29c-1.22,0-1.83-0.61-1.83-1.84
			v-25.29h-28.04v25.29c0,1.23-0.68,1.84-2.04,1.84h-8.25c-1.19,0-1.79-0.57-1.79-1.71V361.71z"/>
		<path d="M376.97,390.96c0-2.93,0.38-5.75,1.13-8.48c0.75-2.73,1.82-5.28,3.22-7.65c1.39-2.37,3.06-4.53,4.99-6.48
			s4.09-3.62,6.46-5c2.37-1.38,4.91-2.45,7.63-3.22s5.55-1.15,8.5-1.15c2.93,0,5.75,0.38,8.46,1.15s5.26,1.84,7.63,3.22
			c2.37,1.38,4.53,3.04,6.48,5s3.62,4.11,4.99,6.48c1.38,2.37,2.45,4.92,3.22,7.65c0.77,2.73,1.15,5.57,1.15,8.53
			s-0.38,5.78-1.15,8.48c-0.77,2.7-1.84,5.24-3.22,7.61c-1.38,2.37-3.04,4.52-4.99,6.46s-4.11,3.59-6.48,4.97
			c-2.37,1.38-4.91,2.45-7.63,3.2s-5.55,1.13-8.5,1.13c-2.95,0-5.79-0.38-8.51-1.13c-2.72-0.75-5.26-1.82-7.63-3.22
			c-2.37-1.39-4.52-3.06-6.46-5c-1.94-1.94-3.59-4.08-4.97-6.44c-1.38-2.35-2.45-4.89-3.2-7.61
			C377.35,396.75,376.97,393.92,376.97,390.96z M389.05,390.88c0,2.82,0.51,5.45,1.53,7.9c1.02,2.45,2.41,4.58,4.18,6.39
			c1.77,1.81,3.86,3.25,6.27,4.3c2.41,1.06,5.02,1.59,7.84,1.59c2.79,0,5.38-0.53,7.79-1.59c2.41-1.06,4.51-2.49,6.29-4.3
			c1.78-1.81,3.18-3.94,4.2-6.39c1.02-2.45,1.53-5.08,1.53-7.9c0-2.79-0.51-5.41-1.53-7.86c-1.02-2.45-2.42-4.59-4.2-6.42
			c-1.78-1.82-3.88-3.27-6.29-4.33c-2.41-1.06-5.01-1.59-7.79-1.59c-2.81,0-5.43,0.53-7.84,1.59c-2.41,1.06-4.5,2.5-6.27,4.33
			c-1.77,1.83-3.16,3.96-4.18,6.42C389.56,385.47,389.05,388.09,389.05,390.88z"/>
		<path d="M451.36,361.83c0-1.31,0.63-1.96,1.88-1.96h23.74c2.81,0,5.41,0.55,7.77,1.65c2.37,1.1,4.41,2.57,6.12,4.41
			c1.71,1.84,3.04,3.95,3.99,6.33c0.95,2.38,1.42,4.87,1.42,7.46c0,2.54-0.47,4.98-1.4,7.33c-0.93,2.36-2.25,4.45-3.93,6.27
			c-1.69,1.83-3.7,3.29-6.05,4.39c-2.34,1.1-4.91,1.65-7.7,1.65h-13.77v20.77c0,1.2-0.63,1.8-1.87,1.8h-8.37
			c-1.22,0-1.83-0.6-1.83-1.8V361.83z M484.09,379.66c0-1.14-0.22-2.27-0.67-3.37c-0.45-1.1-1.06-2.08-1.84-2.93
			c-0.78-0.85-1.72-1.54-2.81-2.07c-1.09-0.53-2.28-0.8-3.56-0.8h-11.77v18.35h11.77c1.26,0,2.43-0.25,3.52-0.75
			s2.03-1.18,2.83-2.03s1.42-1.83,1.86-2.93C483.87,382.01,484.09,380.86,484.09,379.66z"/>
		<path d="M504.82,421.93c-0.64,0-1.18-0.22-1.63-0.67c-0.45-0.45-0.67-1.03-0.67-1.76v-6.27v-0.17c0-0.45,0.17-0.88,0.5-1.3
			l32.43-40.45h-30.26c-0.72,0-1.29-0.19-1.69-0.58c-0.4-0.39-0.61-0.96-0.61-1.71v-6.91c0-0.72,0.2-1.28,0.61-1.67
			c0.4-0.39,0.97-0.58,1.69-0.58H550c0.64,0,1.2,0.2,1.67,0.61c0.47,0.4,0.71,0.97,0.71,1.69v6.1c0,0.28-0.02,0.52-0.06,0.73
			s-0.16,0.47-0.36,0.77l-32.47,40.71h30.68c0.64,0,1.18,0.19,1.63,0.56c0.45,0.38,0.67,0.94,0.67,1.69v6.77
			c0,0.56-0.22,1.1-0.65,1.63c-0.43,0.53-0.98,0.79-1.65,0.79H504.82z"/>
		<path d="M565.04,361.71c0-0.5,0.15-0.93,0.46-1.3c0.31-0.36,0.76-0.54,1.37-0.54h8.29c0.47,0,0.92,0.17,1.33,0.5
			c0.42,0.33,0.62,0.78,0.62,1.34v58.39c0,1.23-0.65,1.84-1.96,1.84h-8.29c-1.22,0-1.83-0.61-1.83-1.84V361.71z"/>
	</g>
</g>
</svg>
